<?xml version="1.0" encoding="utf-8"?>
<!-- Generator: Adobe Illustrator 26.0.0, SVG Export Plug-In . SVG Version: 6.00 Build 0)  -->
<!DOCTYPE svg PUBLIC "-//W3C//DTD SVG 1.1//EN" "http://www.w3.org/Graphics/SVG/1.1/DTD/svg11.dtd" [
	<!ENTITY ns_extend "http://ns.adobe.com/Extensibility/1.0/">
	<!ENTITY ns_ai "http://ns.adobe.com/AdobeIllustrator/10.0/">
	<!ENTITY ns_graphs "http://ns.adobe.com/Graphs/1.0/">
	<!ENTITY ns_vars "http://ns.adobe.com/Variables/1.0/">
	<!ENTITY ns_imrep "http://ns.adobe.com/ImageReplacement/1.0/">
	<!ENTITY ns_sfw "http://ns.adobe.com/SaveForWeb/1.0/">
	<!ENTITY ns_custom "http://ns.adobe.com/GenericCustomNamespace/1.0/">
	<!ENTITY ns_adobe_xpath "http://ns.adobe.com/XPath/1.0/">
]>
<svg version="1.1" id="图层_1" xmlns:x="&ns_extend;" xmlns:i="&ns_ai;" xmlns:graph="&ns_graphs;"
	 xmlns="http://www.w3.org/2000/svg" xmlns:xlink="http://www.w3.org/1999/xlink" x="0px" y="0px" width="26px" height="24px"
	 viewBox="0 0 26 24" style="enable-background:new 0 0 26 24;" xml:space="preserve">
<style type="text/css">
	.st0{fill:#6FFDE4;}
</style>
<metadata>
	<sfw  xmlns="&ns_sfw;">
		<slices></slices>
		<sliceSourceBounds  bottomLeftOrigin="true" height="10" width="12" x="7" y="7"></sliceSourceBounds>
	</sfw>
</metadata>
<g>
	<path class="st0" d="M18.8,11.5l-4.3-4.3C14.4,7.1,14.2,7,14,7c-0.2,0-0.3,0.1-0.5,0.2l-0.4,0.4C13,7.7,13,7.9,13,8
		c0,0.2,0.1,0.3,0.2,0.5l2.5,2.5h-8c-0.4,0-0.6,0.3-0.6,0.6v0.6c0,0.4,0.3,0.7,0.6,0.7h8.1l-2.6,2.5C13,15.6,13,15.8,13,15.9
		c0,0.2,0.1,0.3,0.2,0.5l0.4,0.4c0.1,0.1,0.3,0.2,0.5,0.2c0.2,0,0.3-0.1,0.5-0.2l4.3-4.3c0.1-0.1,0.2-0.3,0.2-0.5
		C19,11.8,18.9,11.6,18.8,11.5z"/>
</g>
</svg>
