<svg width="24" height="24" viewBox="0 0 24 24" fill="none" xmlns="http://www.w3.org/2000/svg">
<g filter="url(#filter0_d_177_284)">
<path fill-rule="evenodd" clip-rule="evenodd" d="M4.57495 6.9377C4.57495 6.5649 4.87716 6.2627 5.24995 6.2627H18.75C19.1227 6.2627 19.425 6.5649 19.425 6.9377V16.5002C19.425 16.8284 19.2946 17.1432 19.0625 17.3752C18.8304 17.6073 18.5157 17.7377 18.1875 17.7377H5.81245C5.48425 17.7377 5.16948 17.6073 4.93741 17.3752C4.70533 17.1432 4.57495 16.8284 4.57495 16.5002V6.9377ZM5.92495 7.6127V16.3877H18.075V7.6127H5.92495Z" fill="url(#paint0_linear_177_284)"/>
</g>
<g filter="url(#filter1_d_177_284)">
<path fill-rule="evenodd" clip-rule="evenodd" d="M4.75238 6.48159C5.00428 6.20678 5.43126 6.18822 5.70607 6.44012L12 12.2095L18.2938 6.44012C18.5686 6.18822 18.9956 6.20678 19.2475 6.48159C19.4994 6.75639 19.4809 7.18337 19.2061 7.43528L12.4561 13.6228C12.198 13.8593 11.8019 13.8593 11.5438 13.6228L4.79384 7.43528C4.51904 7.18337 4.50047 6.75639 4.75238 6.48159Z" fill="url(#paint1_linear_177_284)"/>
</g>
<defs>
<filter id="filter0_d_177_284" x="0.574951" y="2.2627" width="22.8501" height="19.4751" filterUnits="userSpaceOnUse" color-interpolation-filters="sRGB">
<feFlood flood-opacity="0" result="BackgroundImageFix"/>
<feColorMatrix in="SourceAlpha" type="matrix" values="0 0 0 0 0 0 0 0 0 0 0 0 0 0 0 0 0 0 127 0" result="hardAlpha"/>
<feOffset/>
<feGaussianBlur stdDeviation="2"/>
<feComposite in2="hardAlpha" operator="out"/>
<feColorMatrix type="matrix" values="0 0 0 0 0.317647 0 0 0 0 0.847059 0 0 0 0 0.372549 0 0 0 0.5 0"/>
<feBlend mode="normal" in2="BackgroundImageFix" result="effect1_dropShadow_177_284"/>
<feBlend mode="normal" in="SourceGraphic" in2="effect1_dropShadow_177_284" result="shape"/>
</filter>
<filter id="filter1_d_177_284" x="0.574951" y="2.2627" width="22.8501" height="15.5376" filterUnits="userSpaceOnUse" color-interpolation-filters="sRGB">
<feFlood flood-opacity="0" result="BackgroundImageFix"/>
<feColorMatrix in="SourceAlpha" type="matrix" values="0 0 0 0 0 0 0 0 0 0 0 0 0 0 0 0 0 0 127 0" result="hardAlpha"/>
<feOffset/>
<feGaussianBlur stdDeviation="2"/>
<feComposite in2="hardAlpha" operator="out"/>
<feColorMatrix type="matrix" values="0 0 0 0 0.317647 0 0 0 0 0.847059 0 0 0 0 0.372549 0 0 0 0.5 0"/>
<feBlend mode="normal" in2="BackgroundImageFix" result="effect1_dropShadow_177_284"/>
<feBlend mode="normal" in="SourceGraphic" in2="effect1_dropShadow_177_284" result="shape"/>
</filter>
<linearGradient id="paint0_linear_177_284" x1="12" y1="6.2627" x2="12" y2="17.7377" gradientUnits="userSpaceOnUse">
<stop stop-color="#6EF07B"/>
<stop offset="1" stop-color="#49D157"/>
</linearGradient>
<linearGradient id="paint1_linear_177_284" x1="12" y1="6.2627" x2="12" y2="13.8002" gradientUnits="userSpaceOnUse">
<stop stop-color="#6EF07B"/>
<stop offset="1" stop-color="#49D157"/>
</linearGradient>
</defs>
</svg>
